<svg id="Layer_1" data-name="Layer 1" xmlns="http://www.w3.org/2000/svg" viewBox="0 0 398.05 398.05"><title>Icons</title><path d="M320,244.68a63.5,63.5,0,0,0,18.79-124.16,111.44,111.44,0,0,0-206.3-52.73,50.89,50.89,0,0,0-65,37.78A70.7,70.7,0,0,0,85.29,244.68H99v68.14H86.5a25.51,25.51,0,1,0,0,11.77h18.35a5.88,5.88,0,0,0,5.88-5.88v-74h51v88.45a25.51,25.51,0,1,0,11.77,0V244.68h51v88.45a25.51,25.51,0,1,0,11.77,0V244.68h51v74a5.89,5.89,0,0,0,5.89,5.88h18.35a25.51,25.51,0,1,0,0-11.77H299.09V244.68ZM61.68,332.44a13.74,13.74,0,1,1,13.74-13.73A13.75,13.75,0,0,1,61.68,332.44ZM181.37,358a13.74,13.74,0,1,1-13.74-13.74A13.75,13.75,0,0,1,181.37,358Zm155-53a13.74,13.74,0,1,1-13.73,13.74A13.75,13.75,0,0,1,336.36,305Zm-92.21,53a13.74,13.74,0,1,1-13.73-13.74A13.75,13.75,0,0,1,244.15,358ZM288.36,83.47a5.87,5.87,0,0,1-8.28-.79,68.13,68.13,0,0,0-52.63-24.92,5.89,5.89,0,0,1,0-11.77,79.83,79.83,0,0,1,61.7,29.19A5.89,5.89,0,0,1,288.36,83.47Zm7.35,41.92a67.41,67.41,0,0,0-4.64-24,5.89,5.89,0,0,1,11-4.28,79.29,79.29,0,0,1,5.44,28.2,5.89,5.89,0,0,1-5.83,5.94h-.06A5.89,5.89,0,0,1,295.71,125.39Z" style="fill:#7472dc"/></svg>