<svg id="Layer_1" data-name="Layer 1" xmlns="http://www.w3.org/2000/svg" viewBox="0 0 398.05 398.05"><title>Icons</title><path d="M388.32,250V41.79a25.28,25.28,0,0,0-25.25-25.25H35A25.27,25.27,0,0,0,9.73,41.79V281.55A25.27,25.27,0,0,0,35,306.79H161c-1.46,25.13-12,37.86-31.36,37.86a6.25,6.25,0,0,0-3.81,1.31,15.46,15.46,0,0,0,6.2,29.62H266A15.46,15.46,0,0,0,272.23,346a6.27,6.27,0,0,0-3.8-1.3c-19.37,0-29.9-12.73-31.36-37.86h126a25.27,25.27,0,0,0,25.25-25.24V250ZM224.26,275.24a6.3,6.3,0,0,1-6.31,6.31H180.09a6.31,6.31,0,1,1,0-12.61H218A6.3,6.3,0,0,1,224.26,275.24ZM47.59,243.69V54.4H350.46V243.69Z" style="fill:#7472dc"/><path d="M296,187.22l8.47-8.47a6.31,6.31,0,0,0-2.64-10.51L281.05,162V73.33A6.31,6.31,0,0,0,274.74,67H98.07a6.31,6.31,0,0,0-6.31,6.31V193.22a6.31,6.31,0,0,0,6.31,6.31H243.59l6.22,20.74a6.31,6.31,0,0,0,10.51,2.65l8.92-8.93,15.23,15.24a6.3,6.3,0,0,0,8.92,0l17.85-17.85a6.3,6.3,0,0,0,0-8.92ZM104.37,79.64H268.43V98.57H104.37Zm0,107.27V111.19H268.43v47l-29.69-8.91a6.34,6.34,0,0,0-6.28,1.59,6.28,6.28,0,0,0-1.58,6.27l8.92,29.74Zm184.56,28.93L275.06,202a8.24,8.24,0,0,0-11.64,0l-4.56,4.56-12.52-41.76,26.59,8,.08,0,15.08,4.52-4.89,4.88a7.16,7.16,0,0,0,0,10.11l14.64,14.63Z" style="fill:#7472dc"/><path d="M173.78,136.43H123.3a6.31,6.31,0,0,0-6.3,6.31V168a6.31,6.31,0,0,0,6.3,6.31h50.48a6.31,6.31,0,0,0,6.31-6.31V142.74A6.31,6.31,0,0,0,173.78,136.43Zm-6.3,25.24H129.62V149.05h37.86Z" style="fill:#7472dc"/></svg>