<svg id="Layer_1" data-name="Layer 1" xmlns="http://www.w3.org/2000/svg" viewBox="0 0 398.05 398.05"><title>Icons</title><path d="M365.6,56.62H345.67V38.81A12.71,12.71,0,0,0,333,26.1H65.09A12.71,12.71,0,0,0,52.38,38.81v66.12a12.71,12.71,0,0,0,12.71,12.72H333a12.71,12.71,0,0,0,12.71-12.72V82H365.6V316H345.67V293.12A12.71,12.71,0,0,0,333,280.4H65.09a12.71,12.71,0,0,0-12.71,12.72V316H32.45V211.74H52.38v20.34A12.72,12.72,0,0,0,65.09,244.8H333a12.72,12.72,0,0,0,12.71-12.72V166A12.72,12.72,0,0,0,333,153.25H65.09A12.72,12.72,0,0,0,52.38,166v20.34H32.45A25.45,25.45,0,0,0,7,211.74V316a25.45,25.45,0,0,0,25.42,25.43H52.38v17.8A12.72,12.72,0,0,0,65.09,372H333a12.72,12.72,0,0,0,12.71-12.72v-17.8H365.6A25.45,25.45,0,0,0,391,316V82.05A25.45,25.45,0,0,0,365.6,56.62ZM111.72,91.8a19.93,19.93,0,1,1,19.91-19.93A19.93,19.93,0,0,1,111.72,91.8ZM218.1,84.59a9.54,9.54,0,0,1-19.08,0V59.16a9.54,9.54,0,1,1,19.08,0Zm42.38,0a9.54,9.54,0,0,1-19.07,0V59.16a9.54,9.54,0,1,1,19.07,0Zm42.39,0a9.54,9.54,0,0,1-19.08,0V59.16a9.54,9.54,0,0,1,19.08,0ZM283.79,186.31a9.54,9.54,0,0,1,19.08,0v25.43a9.54,9.54,0,0,1-19.08,0Zm-42.38,0a9.54,9.54,0,1,1,19.07,0v25.43a9.54,9.54,0,1,1-19.07,0Zm-42.38,0a9.54,9.54,0,1,1,19.07,0v25.43a9.54,9.54,0,1,1-19.07,0Zm-87.31-7.21A19.93,19.93,0,1,1,91.79,199,19.91,19.91,0,0,1,111.72,179.1Zm0,167a19.92,19.92,0,1,1,19.91-19.92A19.92,19.92,0,0,1,111.72,346.1Zm106.38-7.21a9.54,9.54,0,0,1-19.08,0V313.46a9.54,9.54,0,0,1,19.08,0Zm42.38,0a9.54,9.54,0,1,1-19.07,0V313.46a9.54,9.54,0,0,1,19.07,0Zm42.39,0a9.54,9.54,0,0,1-19.08,0V313.46a9.54,9.54,0,0,1,19.08,0Z" style="fill:#7472dc"/></svg>