<svg id="Layer_1" data-name="Layer 1" xmlns="http://www.w3.org/2000/svg" viewBox="0 0 398.05 398.05"><title>Icons</title><path d="M199,14.78C97.28,14.78,14.79,97.27,14.79,199S97.28,383.26,199,383.26a184.24,184.24,0,0,0,0-368.48Zm-95.09,114H114a70.1,70.1,0,0,1,46.85,17.9,10,10,0,1,1-13.4,14.94A50.09,50.09,0,0,0,114,148.83H103.93a10,10,0,1,1,0-20.07ZM240.34,307.52a10,10,0,0,1-11.81-16.22l30.26-22H234.44A70.21,70.21,0,0,1,188,251.75a10,10,0,1,1,13.28-15.06,50.14,50.14,0,0,0,33.21,12.53h24.31l-30.22-22A10,10,0,0,1,240.34,211l66.37,48.29Zm0-120.45a10,10,0,0,1-11.81-16.23l30.26-22H234.44A50.26,50.26,0,0,0,184.25,199,70.34,70.34,0,0,1,114,269.29H103.93a10,10,0,1,1,0-20.07H114A50.27,50.27,0,0,0,164.18,199a70.34,70.34,0,0,1,70.26-70.27h24.32l-30.23-22a10,10,0,0,1,11.81-16.22l66.37,48.28Z" style="fill:#7472dc"/></svg>