<svg id="Layer_1" data-name="Layer 1" xmlns="http://www.w3.org/2000/svg" viewBox="0 0 1258.91 193.49"><title>MyWebNow</title><path d="M0,8.4H40.79l41.61,84,41.4-84h40.79V152.09H131.38l-.2-91L94.49,137.74H70.3L33.41,61.08v91H0Z" style="fill:#fff"/><path d="M235.3,186q-10.65,7.49-26.44,7.48a52.16,52.16,0,0,1-17.22-2.77A53.71,53.71,0,0,1,176.07,182l15.16-25.21a29.17,29.17,0,0,0,7.38,4.72A19.36,19.36,0,0,0,206,163q9,0,13.32-8.4l2.67-5.13L176.07,41.2h37.51L240,113.35,263.59,41.2h36.28L252.31,163Q246,178.52,235.3,186Z" style="fill:#fff"/><path d="M486.6,8.4h38.53L476.55,152.09H438L410.76,54.32l-27.67,97.77H344.55L296.18,8.4h40.38l28.28,105L393.13,8.4h36.69l28.69,105Z" style="fill:#fff"/><path d="M616.14,56q14.55,16,14.55,43.86,0,4.31-.21,6.56H553.41q2.67,9.44,9.23,14.45a25.5,25.5,0,0,0,16,5A34.49,34.49,0,0,0,592.46,123a39,39,0,0,0,12.2-8.4l19.06,19.06a56.17,56.17,0,0,1-20.81,14.65,71.74,71.74,0,0,1-27.56,5q-17.83,0-31.16-7a48.48,48.48,0,0,1-20.39-19.68q-7.08-12.7-7.07-29.52,0-17,7.17-30A49.46,49.46,0,0,1,544.19,47Q557.3,40,574.53,40,601.57,40,616.14,56ZM595.23,86.91q0-9.63-5.64-15.48t-14.86-5.84a19.8,19.8,0,0,0-14.45,5.74q-5.84,5.74-7.68,15.58Z" style="fill:#fff"/><path d="M746.5,47a47.53,47.53,0,0,1,18.13,20.09q6.47,13,6.46,30,0,16.81-6.25,29.52A46.21,46.21,0,0,1,747,146.35q-11.58,7-26.75,7a44.1,44.1,0,0,1-19-4,39.5,39.5,0,0,1-14.45-11.58v14.35H650.36V0h36.49V55.55Q698.94,40,719.44,40,734.82,40,746.5,47Zm-18.76,69.18q6.66-7.59,6.66-19.89t-6.66-20a21.86,21.86,0,0,0-17.32-7.69,21.32,21.32,0,0,0-17,7.69q-6.57,7.68-6.56,20t6.56,19.89a21.44,21.44,0,0,0,17,7.58A22,22,0,0,0,727.74,116.22Z" style="fill:#fff"/><path d="M888.12,8.4H923V152.09h-32.8L825,66.2v85.89H790V8.4h33l65.38,86.5Z" style="fill:#fff"/><path d="M1034.27,47a51.62,51.62,0,0,1,21.31,19.88q7.59,12.81,7.59,29.62,0,17-7.59,29.82a51.62,51.62,0,0,1-21.31,19.88q-13.74,7.08-31.77,7.08t-31.77-7.08a51,51,0,0,1-21.22-19.88Q942,113.55,942,96.54q0-16.8,7.48-29.62A51,51,0,0,1,970.73,47Q984.46,40,1002.5,40T1034.27,47Zm-49,30q-6.56,7.58-6.56,19.88,0,12.51,6.56,20.09t17.22,7.58q10.86,0,17.42-7.58T1026.48,97q0-12.3-6.66-19.88a22,22,0,0,0-17.32-7.59Q991.84,69.48,985.28,77.07Z" style="fill:#fff"/><path d="M1063.37,41.2h37.1l22.14,75,21.72-75h34.85l21.93,75,22.14-75h35.66l-40.58,110.89h-36.08l-21.11-68.46-21.32,68.46h-36.07Z" style="fill:#fff"/></svg>